<?xml version="1.0" encoding="UTF-8" standalone="no"?><svg version="1.1" xmlns="http://www.w3.org/2000/svg" viewBox="0 0 180.28 144.44" width="53.87" height="43.61"><defs><style>.cls-1{fill:#e6371c;}.cls-2{isolation:isolate;}</style></defs><g id="Calque_2-2"><circle class="cls-1" cx="105.34" cy="15.78" r="8.33"/><circle class="cls-1" cx="68.66" cy="15.3" r="7.38"/><circle class="cls-1" cx="50.08" cy="15.3" r="6.43"/><circle class="cls-1" cx="31.98" cy="14.82" r="5.48"/><circle class="cls-1" cx="13.4" cy="14.82" r="4.05"/><circle class="cls-1" cx="105.34" cy="34.35" r="8.33"/><circle class="cls-1" cx="86.76" cy="34.35" r="7.87"/><circle class="cls-1" cx="86.75" cy="15.3" r="7.87"/><circle class="cls-1" cx="68.66" cy="33.88" r="7.38"/><circle class="cls-1" cx="50.08" cy="33.88" r="6.43"/><circle class="cls-1" cx="31.98" cy="33.4" r="5.48"/><circle class="cls-1" cx="13.4" cy="33.4" r="4.05"/><circle class="cls-1" cx="124.15" cy="34.59" r="8.57"/><circle class="cls-1" cx="105.34" cy="52.93" r="8.33"/><circle class="cls-1" cx="68.66" cy="52.45" r="7.38"/><circle class="cls-1" cx="50.08" cy="52.45" r="6.43"/><circle class="cls-1" cx="31.98" cy="51.98" r="5.48"/><circle class="cls-1" cx="13.4" cy="51.98" r="4.05"/><circle class="cls-1" cx="124.15" cy="53.17" r="8.57"/><circle class="cls-1" cx="105.34" cy="72.46" r="8.33"/><circle class="cls-1" cx="86.76" cy="72.46" r="7.87"/><circle class="cls-1" cx="68.66" cy="71.99" r="7.38"/><circle class="cls-1" cx="50.08" cy="71.99" r="6.43"/><circle class="cls-1" cx="31.98" cy="71.51" r="5.48"/><circle class="cls-1" cx="13.4" cy="71.51" r="4.05"/><circle class="cls-1" cx="124.15" cy="72.7" r="8.57"/><circle class="cls-1" cx="105.34" cy="91.04" r="8.33"/><circle class="cls-1" cx="86.76" cy="91.04" r="7.87"/><circle class="cls-1" cx="68.66" cy="90.57" r="7.38"/><circle class="cls-1" cx="50.08" cy="90.57" r="6.43"/><circle class="cls-1" cx="31.98" cy="90.09" r="5.48"/><circle class="cls-1" cx="13.4" cy="90.09" r="4.05"/><circle class="cls-1" cx="124.15" cy="91.28" r="8.57"/><circle class="cls-1" cx="105.81" cy="110.09" r="8.33"/><circle class="cls-1" cx="69.14" cy="109.62" r="7.38"/><circle class="cls-1" cx="50.56" cy="109.62" r="6.43"/><circle class="cls-1" cx="32.46" cy="109.14" r="5.48"/><circle class="cls-1" cx="13.88" cy="109.14" r="4.05"/><circle class="cls-1" cx="124.63" cy="110.33" r="8.57"/><circle class="cls-1" cx="105.81" cy="128.2" r="8.33"/><circle class="cls-1" cx="69.14" cy="129.15" r="7.38"/><circle class="cls-1" cx="50.56" cy="129.15" r="6.43"/><circle class="cls-1" cx="32.46" cy="129.15" r="5.48"/><circle class="cls-1" cx="13.88" cy="129.15" r="4.05"/><circle class="cls-1" cx="124.63" cy="128.44" r="8.57"/><path class="cls-1" d="M2.62,7.65c0-2.78,2.26-5.02,5.04-5.03H172.63c2.77,0,5.02,2.25,5.03,5.03V136.78c0,2.78-2.25,5.03-5.03,5.04H7.66c-2.78,0-5.04-2.26-5.04-5.04V7.65m-2.62,0V136.78c0,4.23,3.43,7.66,7.66,7.66H172.63c4.23,0,7.65-3.44,7.65-7.66V7.65C180.28,3.43,176.86,0,172.63,0H7.66C3.44,0,0,3.42,0,7.65Z"/><g class="cls-2"><path class="cls-1" d="M155.39,135.09c-1.33-.08-2.44-.41-3.32-1-.88-.59-1.59-1.33-2.12-2.24-.53-.91-.91-1.93-1.14-3.06-.23-1.13-.34-2.27-.34-3.42,0-1.04,.07-2.09,.22-3.16,.15-1.07,.43-2.04,.86-2.92,.43-.88,1.02-1.6,1.78-2.16,.76-.56,1.77-.84,3.02-.84h10.76c.93,0,1.83-.05,2.68-.16,.85-.11,1.49-.29,1.92-.56v5.76c-.32,.11-.65,.19-.98,.26-.33,.07-.67,.11-1.02,.14,.93,.91,1.59,1.97,1.96,3.2,.37,1.23,.56,2.48,.56,3.76,0,.99-.12,1.91-.36,2.76s-.61,1.6-1.12,2.24c-.51,.64-1.15,1.14-1.92,1.5-.77,.36-1.69,.54-2.76,.54-1.17,0-2.14-.21-2.9-.62s-1.37-.95-1.82-1.6c-.45-.65-.79-1.4-1.02-2.24-.23-.84-.41-1.69-.54-2.54-.13-.85-.24-1.69-.32-2.52-.08-.83-.2-1.56-.36-2.2-.16-.64-.39-1.15-.7-1.52s-.75-.55-1.34-.52c-.61,0-1.1,.1-1.46,.3-.36,.2-.64,.47-.84,.8-.2,.33-.33,.72-.4,1.16-.07,.44-.1,.91-.1,1.42,0,1.12,.24,2,.72,2.64,.48,.64,1.28,1.01,2.4,1.12v5.68Zm4.2-13.12c.21,.24,.38,.54,.5,.9s.22,.75,.3,1.16,.15,.85,.2,1.3c.05,.45,.12,.91,.2,1.36,.08,.43,.19,.85,.32,1.26s.31,.77,.54,1.08,.51,.55,.86,.74c.35,.19,.79,.28,1.32,.28s.93-.09,1.28-.28c.35-.19,.62-.44,.82-.76,.2-.32,.34-.69,.42-1.12,.08-.43,.12-.87,.12-1.32,0-1.12-.19-1.99-.56-2.6-.37-.61-.82-1.07-1.34-1.36-.52-.29-1.05-.47-1.58-.54s-.96-.1-1.28-.1h-2.12Z"/><path class="cls-1" d="M149.03,100.53h3.8v4.16h10.24c.96,0,1.6-.16,1.92-.48,.32-.32,.48-.96,.48-1.92,0-.32-.01-.63-.04-.92-.03-.29-.07-.57-.12-.84h4.4c.08,.48,.13,1.01,.16,1.6,.03,.59,.04,1.16,.04,1.72,0,.88-.06,1.71-.18,2.5-.12,.79-.35,1.48-.7,2.08-.35,.6-.84,1.07-1.48,1.42-.64,.35-1.48,.52-2.52,.52h-12.2v3.44h-3.8v-3.44h-6.2v-5.68h6.2v-4.16Z"/><path class="cls-1" d="M154.89,97.7c-1.35-.51-2.49-1.23-3.44-2.16s-1.68-2.05-2.2-3.36c-.52-1.31-.78-2.77-.78-4.4s.26-3.1,.78-4.42c.52-1.32,1.25-2.45,2.2-3.38,.95-.93,2.09-1.65,3.44-2.16,1.35-.51,2.85-.76,4.5-.76s3.15,.25,4.48,.76c1.33,.51,2.47,1.23,3.42,2.16,.95,.93,1.67,2.06,2.18,3.38,.51,1.32,.76,2.79,.76,4.42s-.25,3.09-.76,4.4c-.51,1.31-1.23,2.43-2.18,3.36-.95,.93-2.09,1.65-3.42,2.16-1.33,.51-2.83,.76-4.48,.76s-3.15-.25-4.5-.76Zm6.92-5.16c.79-.16,1.49-.43,2.12-.82,.63-.39,1.13-.9,1.5-1.54,.37-.64,.56-1.44,.56-2.4s-.19-1.77-.56-2.42c-.37-.65-.87-1.17-1.5-1.56-.63-.39-1.33-.66-2.12-.82-.79-.16-1.59-.24-2.42-.24s-1.64,.08-2.44,.24-1.51,.43-2.12,.82-1.11,.91-1.5,1.56c-.39,.65-.58,1.46-.58,2.42s.19,1.76,.58,2.4,.89,1.15,1.5,1.54,1.32,.66,2.12,.82,1.61,.24,2.44,.24,1.63-.08,2.42-.24Z"/><path class="cls-1" d="M149.03,67.86h2.8v-.08c-1.07-.75-1.89-1.65-2.48-2.7-.59-1.05-.88-2.26-.88-3.62s.25-2.5,.76-3.58c.51-1.08,1.4-1.9,2.68-2.46-.91-.61-1.71-1.45-2.4-2.5-.69-1.05-1.04-2.3-1.04-3.74,0-1.09,.13-2.11,.4-3.04,.27-.93,.69-1.73,1.28-2.4s1.35-1.19,2.3-1.56c.95-.37,2.09-.56,3.42-.56h13.84v5.68h-11.72c-.69,0-1.35,.03-1.96,.08-.61,.05-1.15,.2-1.6,.44-.45,.24-.81,.59-1.08,1.06-.27,.47-.4,1.1-.4,1.9s.15,1.45,.46,1.94c.31,.49,.71,.88,1.2,1.16,.49,.28,1.05,.47,1.68,.56,.63,.09,1.26,.14,1.9,.14h11.52v5.68h-11.6c-.61,0-1.22,.01-1.82,.04-.6,.03-1.15,.14-1.66,.34-.51,.2-.91,.53-1.22,1s-.46,1.15-.46,2.06c0,.27,.06,.62,.18,1.06,.12,.44,.35,.87,.68,1.28,.33,.41,.81,.77,1.44,1.06,.63,.29,1.45,.44,2.46,.44h12v5.68h-20.68v-5.36Z"/><path class="cls-1" d="M163.55,30.62h6.16v6.28h-6.16v-6.28Z"/></g></g></svg>